<svg width="89" height="53" viewBox="0 0 89 53" fill="none" xmlns="http://www.w3.org/2000/svg">
<path fill-rule="evenodd" clip-rule="evenodd" d="M10.8894 17.096C7.90365 19.0897 7.10235 23.1248 9.09605 26.1106C11.0897 29.0964 15.1248 29.8976 18.1106 27.904C21.0964 25.9103 21.8976 21.8752 19.904 18.8894C17.9103 15.9036 13.8752 15.1024 10.8894 17.096Z" fill="white"/>
<path fill-rule="evenodd" clip-rule="evenodd" d="M30.2202 2.84128C27.9225 4.37353 27.3116 7.48362 28.8434 9.77287C30.3752 12.0712 33.4844 12.6914 35.7822 11.1592C38.0707 9.62694 38.6908 6.51685 37.159 4.21848C35.618 1.92923 32.5088 1.30904 30.2202 2.84128Z" fill="white"/>
<path fill-rule="evenodd" clip-rule="evenodd" d="M52.7779 0.671599C50.9376 1.90426 50.4499 4.38797 51.6737 6.21856C52.9067 8.05834 55.3819 8.55509 57.2221 7.32243C59.0624 6.09897 59.5501 3.60606 58.3263 1.76627C57.1025 -0.0551172 54.6181 -0.55186 52.7779 0.671599Z" fill="white"/>
<path fill-rule="evenodd" clip-rule="evenodd" d="M72.5606 9.59492C70.9465 10.6747 70.5148 12.8445 71.5942 14.4487C72.6634 16.0529 74.8429 16.4848 76.4466 15.4051C78.0504 14.3356 78.4822 12.1658 77.413 10.5513C76.3335 8.94706 74.1643 8.51515 72.5606 9.59492Z" fill="white"/>
<path fill-rule="evenodd" clip-rule="evenodd" d="M85.8889 21.3346C84.9709 21.9539 84.7221 23.1924 85.3398 24.1127C85.949 25.033 87.193 25.2738 88.1111 24.6631C89.0291 24.0525 89.2779 22.8054 88.6602 21.8851C88.051 20.9734 86.807 20.724 85.8889 21.3346Z" fill="white"/>
<path fill-rule="evenodd" clip-rule="evenodd" d="M3.33444 39.2631C-0.117235 41.5709 -1.0326 46.2248 1.26534 49.6675C3.56328 53.1102 8.21637 54.0353 11.668 51.7369C15.1102 49.4386 16.0351 44.7752 13.7371 41.3325C11.4297 37.8898 6.76705 36.9647 3.33444 39.2631Z" fill="#FF6600"/>
</svg>
