<?xml version="1.0" encoding="UTF-8"?>
<!DOCTYPE svg PUBLIC "-//W3C//DTD SVG 1.1//EN" "http://www.w3.org/Graphics/SVG/1.1/DTD/svg11.dtd">
<!-- Creator: CorelDRAW 2021.5 -->
<svg xmlns="http://www.w3.org/2000/svg" xml:space="preserve" width="36.9093mm" height="9.9152mm" version="1.1" style="shape-rendering:geometricPrecision; text-rendering:geometricPrecision; image-rendering:optimizeQuality; fill-rule:evenodd; clip-rule:evenodd"
viewBox="0 0 1650.27 443.32"
 xmlns:xlink="http://www.w3.org/1999/xlink"
 xmlns:xodm="http://www.corel.com/coreldraw/odm/2003">
 <defs>
  <style type="text/css">
   <![CDATA[
    .fil0 {fill:none}
    .fil3 {fill:#FF6600}
    .fil2 {fill:white}
    .fil1 {fill:white;fill-rule:nonzero}
   ]]>
  </style>
 </defs>
 <g id="Layer_x0020_1">
  <metadata id="CorelCorpID_0Corel-Layer"/>
  <rect class="fil0" x="-0" width="1650.27" height="443.32"/>
  <g id="_105553183680064">
   <path class="fil1" d="M264.81 232.7l-79.49 0 0 39.75 79.49 0c13.23,0 19.87,-6.62 19.87,-19.87 0,-13.26 -6.65,-19.87 -19.87,-19.87l0 0zm-99.36 -69.55c0,-6.61 3.32,-9.94 9.93,-9.94l89.42 0c26.49,0 39.75,13.26 39.75,39.75 0,13.25 -3.37,23.19 -10.04,29.8 6.68,6.65 10.04,16.55 10.04,29.81 0,26.48 -13.26,39.74 -39.75,39.74l-89.42 0c-6.61,0 -9.93,-3.32 -9.93,-9.93l0 -119.22zm99.36 49.67c13.23,0 19.87,-6.61 19.87,-19.87 0,-13.23 -6.65,-19.87 -19.87,-19.87l-79.49 0 0 39.74 79.49 0z"/>
   <path id="_1" class="fil1" d="M341.5 232.7l0 49.67c0,6.61 -3.32,9.93 -9.93,9.93 -6.61,0 -9.93,-3.32 -9.93,-9.93l0 -119.22c0,-6.61 3.32,-9.94 9.93,-9.94 6.61,0 9.93,3.33 9.93,9.94l0 49.67 99.36 0 0 -49.67c0,-6.61 3.29,-9.94 9.93,-9.94 6.6,0 9.93,3.33 9.93,9.94l0 119.22c0,6.61 -3.33,9.93 -9.93,9.93 -6.64,0 -9.93,-3.32 -9.93,-9.93l0 -49.67 -99.36 0z"/>
   <path id="_2" class="fil1" d="M1169.25 282.38l0 -119.22c0,-6.61 3.33,-9.94 9.94,-9.94 6.61,0 9.93,3.33 9.93,9.94l0 109.3 109.3 0c6.6,0 9.93,3.32 9.93,9.93 0,6.61 -3.32,9.93 -9.93,9.93l-119.23 0c-6.61,0 -9.94,-3.32 -9.94,-9.93z"/>
   <path id="_3" class="fil1" d="M1342.92 288.66c-4.65,4.67 -9.33,4.67 -14.01,0 -4.72,-4.72 -4.72,-9.4 0,-14.04l116.52 -116.32c2.44,-3.05 5.59,-4.74 9.43,-5.09 6.38,0.06 9.6,3.3 9.66,9.67l0 1.66 0 117.83c0,6.61 -3.32,9.93 -9.93,9.93 -6.66,0 -9.93,-3.32 -9.93,-9.93l0 -95.28 -101.74 101.56 0 0z"/>
   <path id="_4" class="fil1" d="M1580.96 232.7l-79.49 0 0 39.75 79.49 0c13.23,0 19.87,-6.62 19.87,-19.87 0,-13.26 -6.64,-19.87 -19.87,-19.87l0 0zm-99.36 -69.55c0,-6.61 3.32,-9.94 9.94,-9.94l89.42 0c26.47,0 39.74,13.26 39.74,39.75 0,13.25 -3.35,23.19 -10.03,29.8 6.68,6.65 10.03,16.55 10.03,29.81 0,26.48 -13.26,39.74 -39.74,39.74l-89.42 0c-6.62,0 -9.94,-3.32 -9.94,-9.93l0 -119.22zm99.36 49.67c13.23,0 19.87,-6.61 19.87,-19.87 0,-13.23 -6.64,-19.87 -19.87,-19.87l-79.49 0 0 39.74 79.49 0z"/>
   <path id="_5" class="fil1" d="M615.9 173.09l0 109.29c0,6.61 -3.34,9.93 -9.94,9.93 -6.64,0 -9.93,-3.32 -9.93,-9.93l0 -109.29 -49.68 0c-6.6,0 -9.94,-3.29 -9.94,-9.93 0,-6.61 3.34,-9.94 9.94,-9.94l119.23 0c6.61,0 9.93,3.33 9.93,9.94 0,6.64 -3.32,9.93 -9.93,9.93l-49.67 0z"/>
   <path id="_6" class="fil1" d="M692.58 163.15c0,-6.61 3.32,-9.94 9.94,-9.94l119.23 0c6.61,0 9.93,3.33 9.93,9.94 0,6.64 -3.32,9.93 -9.93,9.93l-119.23 0c-6.62,0 -9.94,-3.29 -9.94,-9.93zm0 119.22c0,-6.6 3.32,-9.93 9.94,-9.93l119.23 0c6.61,0 9.93,3.32 9.93,9.93 0,6.61 -3.32,9.93 -9.93,9.93l-119.23 0c-6.62,0 -9.94,-3.32 -9.94,-9.93zm0 -59.61c0,-6.61 3.32,-9.93 9.94,-9.93l119.23 0c6.61,0 9.93,3.32 9.93,9.93 0,6.65 -3.32,9.94 -9.93,9.94l-119.23 0c-6.62,0 -9.94,-3.29 -9.94,-9.94z"/>
   <path id="_7" class="fil1" d="M985.56 203.71l0.4 2.37c1.12,6.55 -1.56,10.42 -8.03,11.54 -5.39,0.92 -9,-0.68 -10.85,-4.78 -1.84,-9.52 -6.38,-17.93 -13.6,-25.23 -9.73,-9.66 -21.47,-14.51 -35.16,-14.51 -13.74,0 -25.44,4.85 -35.14,14.58 -9.7,9.7 -14.54,21.4 -14.54,35.09 0,13.74 4.85,25.43 14.54,35.14 9.7,9.7 21.4,14.55 35.14,14.55 13.7,0 25.43,-4.89 35.16,-14.62 7.23,-7.23 11.9,-15.53 14.11,-24.92 1.86,-3.64 5.28,-5.03 10.34,-4.17 6.48,1.18 9.16,5.01 8.03,11.52l-0.4 2.48c-2.72,10.78 -8.75,20.55 -18.08,29.2 -13.56,13.59 -29.97,20.37 -49.16,20.37 -19.23,0 -35.61,-6.78 -49.17,-20.37 -13.59,-13.57 -20.38,-29.95 -20.38,-49.18 0,-19.19 6.79,-35.6 20.38,-49.16 13.56,-13.57 29.94,-20.38 49.17,-20.38 19.19,0 35.6,6.81 49.16,20.38 10.42,10.4 16.42,20.45 18.08,30.11z"/>
   <path id="_8" class="fil1" d="M1024.81 232.7l0 49.67c0,6.61 -3.32,9.93 -9.94,9.93 -6.61,0 -9.93,-3.32 -9.93,-9.93l0 -119.22c0,-6.61 3.32,-9.94 9.93,-9.94 6.62,0 9.94,3.33 9.94,9.94l0 49.67 99.36 0 0 -49.67c0,-6.61 3.29,-9.94 9.93,-9.94 6.62,0 9.94,3.33 9.94,9.94l0 119.22c0,6.61 -3.32,9.93 -9.94,9.93 -6.64,0 -9.93,-3.32 -9.93,-9.93l0 -49.67 -99.36 0z"/>
   <path class="fil2" d="M80.71 78.84c-13.76,9.19 -17.44,27.77 -8.26,41.51 9.19,13.74 27.76,17.45 41.52,8.24 13.73,-9.17 17.42,-27.75 8.24,-41.5 -9.17,-13.74 -27.77,-17.43 -41.5,-8.25z"/>
   <path class="fil2" d="M166.91 13.48c-11.05,7.39 -14.02,22.34 -6.65,33.39 7.4,11.06 22.36,14.04 33.4,6.66 11.05,-7.37 14.02,-22.36 6.64,-33.4 -7.38,-11.05 -22.34,-14.02 -33.39,-6.64l0 0z"/>
   <path class="fil2" d="M270.16 3.21c-8.79,5.87 -11.12,17.73 -5.28,26.48 5.87,8.79 17.72,11.15 26.5,5.28 8.77,-5.86 11.12,-17.72 5.25,-26.5 -5.85,-8.75 -17.71,-11.12 -26.48,-5.27z"/>
   <path class="fil2" d="M362.56 44.34c-6.87,4.6 -8.72,13.88 -4.13,20.75 4.58,6.85 13.86,8.69 20.73,4.09 6.85,-4.57 8.71,-13.85 4.11,-20.71 -4.58,-6.86 -13.86,-8.7 -20.71,-4.13l0 0z"/>
   <path class="fil2" d="M422.74 97.38c-4.7,3.14 -5.96,9.49 -2.83,14.19 3.14,4.69 9.48,5.95 14.19,2.81 4.69,-3.13 5.96,-9.48 2.82,-14.17 -3.13,-4.69 -9.49,-5.96 -14.18,-2.83z"/>
   <path class="fil3" d="M43.63 179.37c-15.89,10.61 -20.13,32.04 -9.54,47.9 10.6,15.87 32.03,20.13 47.91,9.52 15.85,-10.58 20.11,-32.04 9.52,-47.89 -10.6,-15.85 -32.05,-20.12 -47.89,-9.53l0 0z"/>
  </g>
 </g>
</svg>
