<svg width="58" height="49" viewBox="0 0 58 49" fill="none" xmlns="http://www.w3.org/2000/svg">
<path d="M0.664033 45.6062L35.567 1.26979C35.7375 1.06034 35.9558 0.894996 36.2036 0.787766C36.4514 0.680534 36.7213 0.634563 36.9905 0.653758C37.2576 0.690727 37.5121 0.790567 37.733 0.945061C37.9539 1.09955 38.1349 1.3043 38.2612 1.54246L57.6653 39.6214C57.7717 39.8472 57.824 40.0948 57.818 40.3444C57.812 40.594 57.7478 40.8388 57.6306 41.0594C57.5134 41.28 57.3464 41.4703 57.1429 41.6151C56.9394 41.7599 56.7049 41.8553 56.4582 41.8937L2.16928 48.2033C1.85886 48.2372 1.54536 48.1799 1.26715 48.0384C0.988952 47.8969 0.758127 47.6773 0.602929 47.4065C0.435133 47.1338 0.35145 46.8176 0.362316 46.4974C0.373185 46.1772 0.478122 45.8673 0.664033 45.6062ZM36.514 5.1158L5.52174 44.5002L53.8473 38.9469L36.514 5.1158Z" fill="#71C8CD"/>
</svg>
