<svg width="60" height="59" viewBox="0 0 60 59" fill="none" xmlns="http://www.w3.org/2000/svg">
<path opacity="0.69" d="M42.7837 49.5125L26.0016 28.7796L32.4456 12.8304L42.7837 49.5125Z" fill="#21A9E3"/>
<path d="M43.1252 49.3723C43.1485 49.4299 43.1571 49.4923 43.1503 49.554C43.1435 49.6157 43.1214 49.6747 43.0861 49.7258C43.0392 49.7938 42.9717 49.845 42.8936 49.872C42.8154 49.8989 42.7307 49.9002 42.6518 49.8756L9.48532 39.8514C9.41426 39.8303 9.35063 39.7895 9.30185 39.7337C9.25306 39.6779 9.2211 39.6094 9.20969 39.5362C9.19752 39.4648 9.2066 39.3913 9.2358 39.325C9.26501 39.2586 9.31307 39.2023 9.37401 39.163L25.7799 28.4548C25.8638 28.4066 25.9618 28.3888 26.0574 28.4044C26.153 28.42 26.2403 28.468 26.3046 28.5404L43.0858 49.2774C43.1032 49.3071 43.1165 49.339 43.1252 49.3723ZM10.4834 39.356L41.6807 48.7821L25.9024 29.2878L10.4834 39.356Z" fill="#21A9E3"/>
<path d="M32.8075 12.6947C32.8452 12.7859 32.8458 12.8881 32.8093 12.9796L26.3622 28.9239C26.3342 28.9957 26.2845 29.0571 26.2199 29.0994L9.81907 39.8044C9.74049 39.8554 9.64634 39.8769 9.55336 39.8651C9.46039 39.8532 9.37461 39.8089 9.31128 39.7398C9.24836 39.671 9.21239 39.5818 9.20996 39.4886C9.20754 39.3954 9.23882 39.3045 9.29808 39.2326L32.147 12.5792C32.1919 12.5295 32.2486 12.4921 32.312 12.4703C32.3753 12.4485 32.4431 12.4431 32.5091 12.4547C32.5751 12.4662 32.6371 12.4943 32.6893 12.5363C32.7414 12.5783 32.7821 12.6328 32.8075 12.6947ZM25.6834 28.5198L31.1859 14.9017L11.6715 37.6657L25.6834 28.5198Z" fill="#21A9E3"/>
<path d="M32.8075 12.6946C32.8062 12.7072 32.8034 12.7197 32.7994 12.7316L43.159 49.4142C43.1825 49.4996 43.1757 49.5904 43.1397 49.6712C43.1038 49.7521 43.041 49.818 42.9619 49.8578C42.8801 49.8937 42.7889 49.9027 42.7017 49.8834C42.6144 49.8642 42.5355 49.8177 42.4764 49.7507L25.6943 29.0178C25.651 28.965 25.6228 28.9015 25.6126 28.834C25.6025 28.7665 25.6107 28.6975 25.6366 28.6343L32.0796 12.6892C32.1117 12.6155 32.1658 12.5534 32.2345 12.5115C32.3032 12.4696 32.3832 12.4499 32.4635 12.4549C32.5368 12.4614 32.6071 12.4869 32.6675 12.529C32.7278 12.5711 32.7761 12.6282 32.8075 12.6946ZM41.8872 47.8061L32.3671 14.0458L26.4314 28.7278L41.8872 47.8061Z" fill="#21A9E3"/>
</svg>
