<svg width="111" height="113" viewBox="0 0 111 113" fill="none" xmlns="http://www.w3.org/2000/svg">
<path opacity="0.69" d="M26.6589 111.428L52.4509 47.6261L96.5005 42.2169L26.6589 111.428Z" fill="#21A9E3"/>
<path d="M27.4025 112.023C27.3017 112.148 27.1716 112.246 27.0239 112.307C26.8761 112.369 26.7153 112.393 26.556 112.377C26.3438 112.356 26.1439 112.268 25.9853 112.126C25.8267 111.983 25.7178 111.794 25.6745 111.585L6.8083 24.2062C6.76704 24.0194 6.77956 23.8248 6.8444 23.6449C6.90924 23.4651 7.02374 23.3073 7.17462 23.19C7.32065 23.0732 7.49777 23.0018 7.684 22.9847C7.87024 22.9676 8.05742 23.0056 8.22235 23.094L52.9065 46.7194C53.1202 46.8486 53.2829 47.0475 53.3672 47.2827C53.4516 47.5178 53.4525 47.7748 53.3697 48.0105L27.5673 111.816C27.522 111.892 27.4666 111.962 27.4025 112.023ZM9.17442 25.8387L26.9275 108.026L51.1799 48.0379L9.17442 25.8387Z" fill="#21A9E3"/>
<path d="M97.2591 42.864C97.1006 43.063 96.8709 43.1923 96.6186 43.2245L52.5762 48.6202C52.3791 48.647 52.1784 48.6115 52.0022 48.5187L7.33161 24.9006C7.11823 24.7871 6.95195 24.6016 6.86234 24.377C6.77274 24.1524 6.76562 23.9033 6.84226 23.674C6.91887 23.4459 7.07512 23.2532 7.28233 23.1312C7.48954 23.0092 7.73381 22.966 7.97031 23.0097L96.6937 41.229C96.8619 41.2682 97.0174 41.3494 97.1458 41.4651C97.2741 41.5807 97.3711 41.7271 97.4276 41.8904C97.4841 42.0537 97.4983 42.2287 97.4688 42.399C97.4393 42.5692 97.3672 42.7292 97.2591 42.864ZM52.639 46.583L90.2509 41.9654L14.4748 26.4055L52.639 46.583Z" fill="#21A9E3"/>
<path d="M97.2596 42.8641C97.2295 42.8768 97.1981 42.8861 97.1659 42.8919L27.3501 112.152C27.187 112.312 26.9736 112.41 26.7462 112.43C26.5187 112.45 26.2914 112.391 26.1026 112.262C25.9193 112.123 25.7851 111.928 25.7194 111.707C25.6537 111.486 25.6599 111.25 25.7371 111.033L51.5291 47.2308C51.5941 47.067 51.7021 46.9239 51.8416 46.8165C51.9812 46.7092 52.1472 46.6415 52.3221 46.6208L96.3613 41.2147C96.5679 41.195 96.7755 41.2394 96.956 41.342C97.1365 41.4445 97.2811 41.6003 97.3701 41.7879C97.4472 41.9614 97.4776 42.152 97.4582 42.3408C97.4388 42.5296 97.3703 42.71 97.2596 42.8641ZM29.3883 107.271L93.6598 43.5602L53.1054 48.5312L29.3883 107.271Z" fill="#21A9E3"/>
</svg>
