<svg width="40" height="40" viewBox="0 0 40 40" fill="none" xmlns="http://www.w3.org/2000/svg">
<path opacity="0.4" d="M17.7843 3.51331L30.8565 21.4006L15.5243 20.2878L17.7843 3.51331Z" fill="#ADD136"/>
<path d="M15.3721 20.3675C15.3562 20.3384 15.3502 20.305 15.355 20.2722L17.6169 3.48951C17.6217 3.45632 17.6363 3.42533 17.6588 3.40048C17.6814 3.37563 17.7108 3.35805 17.7433 3.34998C17.7758 3.34192 17.81 3.34373 17.8415 3.3552C17.873 3.36666 17.9004 3.38725 17.9201 3.41434L30.9909 21.3039C31.0104 21.3294 31.022 21.3601 31.0242 21.3922C31.0263 21.4242 31.019 21.4562 31.0031 21.4841C30.9876 21.512 30.9644 21.5349 30.9363 21.55C30.9081 21.5651 30.8762 21.5717 30.8444 21.5692L15.5136 20.454C15.4908 20.451 15.4688 20.4432 15.4492 20.4312C15.4295 20.4191 15.4126 20.4031 15.3995 20.3842C15.3897 20.3797 15.3806 20.374 15.3721 20.3675ZM17.8878 3.94414L15.7061 20.129L30.5065 21.2086L17.8878 3.94414Z" fill="#ADD136"/>
<path d="M5.86626 26.5834C5.85158 26.5475 5.84972 26.5076 5.86101 26.4705C5.8723 26.4333 5.89604 26.4012 5.92823 26.3795L15.4318 20.1465C15.4632 20.1275 15.4995 20.1181 15.5362 20.1193L30.8693 21.2358C30.9089 21.239 30.9461 21.2562 30.9741 21.2845C31.002 21.3128 31.0189 21.3502 31.0216 21.3899C31.0243 21.4296 31.0127 21.469 30.9888 21.5008C30.965 21.5327 30.9305 21.5549 30.8916 21.5635L6.05185 26.6749C6.0151 26.683 5.97673 26.6783 5.94302 26.6617C5.9093 26.6451 5.88224 26.6175 5.86626 26.5834ZM15.5717 20.4613L6.84515 26.1679L29.6357 21.483L15.5717 20.4613Z" fill="#ADD136"/>
<path d="M5.86644 26.5835C5.85556 26.5599 5.84999 26.5342 5.85014 26.5083C5.8503 26.4823 5.85616 26.4567 5.86732 26.4333L17.6348 3.43449C17.6535 3.40002 17.6835 3.37311 17.7198 3.35836C17.7561 3.34361 17.7964 3.34195 17.8337 3.35366C17.8711 3.36537 17.9032 3.38972 17.9245 3.42253C17.9459 3.45535 17.9552 3.49459 17.9508 3.53351L15.6894 20.3103C15.6872 20.3343 15.6795 20.3575 15.6669 20.3781C15.6543 20.3987 15.6371 20.4162 15.6167 20.4291L6.11055 26.6511C6.07942 26.671 6.04274 26.6802 6.00595 26.6775C5.96917 26.6748 5.93424 26.6603 5.90637 26.6362C5.89 26.6211 5.87647 26.6033 5.86644 26.5835ZM17.4866 4.46171L6.45408 26.0228L15.3591 20.1836L17.4866 4.46171Z" fill="#ADD136"/>
</svg>
