<svg width="35" height="34" viewBox="0 0 35 34" fill="none" xmlns="http://www.w3.org/2000/svg">
<path d="M34.6327 13.7895C34.682 13.8017 34.7269 13.8274 34.7624 13.8637C34.7979 13.9 34.8226 13.9455 34.8338 13.995C34.845 14.0446 34.8422 14.0963 34.8258 14.1444C34.8093 14.1924 34.7798 14.235 34.7406 14.2673L15.9807 29.357C15.9408 29.39 15.892 29.4106 15.8405 29.4162C15.789 29.4218 15.737 29.4122 15.6909 29.3885C15.6451 29.3655 15.6066 29.3304 15.5795 29.2869C15.5524 29.2435 15.5378 29.1934 15.5372 29.1421L15.7474 15.3088C15.7488 15.2406 15.7757 15.1754 15.8226 15.1259C15.8696 15.0764 15.9333 15.0461 16.0013 15.0411L34.5486 13.7888C34.5765 13.7846 34.6049 13.7848 34.6327 13.7895ZM16.0892 28.5715L33.7242 14.3903L16.2861 15.5707L16.0892 28.5715Z" fill="#ADD136"/>
<path d="M9.36878 4.82994C9.43771 4.84136 9.49948 4.87914 9.54105 4.9353L16.2526 15.1554C16.2824 15.2009 16.2988 15.2539 16.2999 15.3084L16.0913 29.1483C16.0894 29.2139 16.0641 29.2767 16.02 29.3252C15.9758 29.3738 15.9157 29.4049 15.8506 29.4129C15.786 29.4253 15.719 29.4131 15.6629 29.3788C15.6068 29.3445 15.5655 29.2904 15.5471 29.2272L9.04821 5.16977C9.03049 5.10818 9.03572 5.04223 9.06294 4.98417C9.09015 4.92612 9.1375 4.8799 9.19619 4.85411C9.24898 4.82562 9.31023 4.81704 9.36878 4.82994ZM15.7424 15.3905L10.0163 6.66451L15.5651 27.2075L15.7424 15.3905Z" fill="#ADD136"/>
<path d="M9.36896 4.82993C9.37816 4.8331 9.38655 4.83824 9.39357 4.84498L34.6574 13.8046C34.7163 13.8242 34.7665 13.8639 34.799 13.9169C34.8316 13.9698 34.8444 14.0325 34.8354 14.094C34.8276 14.1564 34.7982 14.2141 34.7523 14.2571C34.7064 14.3002 34.647 14.3258 34.5842 14.3296L16.037 15.5819C15.9887 15.5812 15.9416 15.5675 15.9005 15.5424C15.8594 15.5172 15.8258 15.4815 15.8032 15.4389L9.09166 5.21879C9.05978 5.17205 9.04373 5.1163 9.04587 5.05974C9.04801 5.00317 9.06822 4.94876 9.10354 4.90451C9.13635 4.86842 9.17864 4.84228 9.22557 4.82909C9.27251 4.8159 9.3222 4.81619 9.36896 4.82993ZM33.2496 13.8856L9.99114 5.62792L16.1671 15.0466L33.2496 13.8856Z" fill="#ADD136"/>
</svg>
