<svg width="80" height="80" viewBox="0 0 80 80" fill="none" xmlns="http://www.w3.org/2000/svg">
<path opacity="0.4" d="M77.2137 41.1816L32.4359 63.9908L40.4677 30.0601L77.2137 41.1816Z" fill="#B77EFF"/>
<path d="M40.3444 29.6906C40.4152 29.6656 40.4922 29.6642 40.5638 29.6868L77.3275 40.8156C77.4001 40.8385 77.4642 40.8824 77.5117 40.9418C77.5592 41.0012 77.5879 41.0734 77.5942 41.1492C77.6005 41.225 77.5841 41.3009 77.5471 41.3673C77.51 41.4336 77.454 41.4874 77.3862 41.5218L32.6039 64.327C32.5398 64.3615 32.4669 64.3763 32.3943 64.3695C32.3218 64.3628 32.2529 64.3348 32.1961 64.2892C32.1391 64.2444 32.0963 64.1841 32.0727 64.1157C32.049 64.0472 32.0457 63.9734 32.0629 63.9031L40.0994 29.9763C40.1145 29.9263 40.1399 29.8799 40.1739 29.8403C40.2079 29.8006 40.2498 29.7685 40.297 29.7459C40.3107 29.7257 40.3266 29.7072 40.3444 29.6906ZM76.2116 41.2581L40.7576 30.5248L32.9924 63.2767L76.2116 41.2581Z" fill="#B77EFF"/>
<path d="M29.8597 6.15888C29.9454 6.13898 30.0354 6.14924 30.1145 6.18793C30.1936 6.22663 30.2569 6.29139 30.2939 6.37131L40.8175 29.9044C40.8486 29.9817 40.8566 30.0664 40.8406 30.1481L32.8003 64.0795C32.7789 64.1671 32.7267 64.2442 32.6533 64.2965C32.5799 64.3489 32.49 64.3732 32.4002 64.3649C32.3103 64.3566 32.2264 64.3163 32.1636 64.2514C32.1009 64.1865 32.0636 64.1012 32.0584 64.0111L29.5877 6.54138C29.5829 6.45621 29.6073 6.37197 29.6567 6.30248C29.7061 6.23299 29.7777 6.18236 29.8597 6.15888ZM40.0619 30.1041L30.4365 8.50102L32.6924 61.2279L40.0619 30.1041Z" fill="#B77EFF"/>
<path d="M29.8596 6.15873C29.9163 6.14286 29.9758 6.13968 30.0338 6.1494C30.0919 6.15911 30.1471 6.1815 30.1956 6.21497L77.4441 40.8755C77.5146 40.9297 77.564 41.0067 77.5839 41.0933C77.6038 41.1799 77.593 41.2707 77.5533 41.3501C77.5135 41.4295 77.4474 41.4926 77.3662 41.5285C77.285 41.5645 77.1938 41.5711 77.1082 41.5472L40.3577 30.4216C40.3047 30.4079 40.2555 30.3823 40.2139 30.3466C40.1723 30.3109 40.1395 30.2662 40.1178 30.2159L29.6199 6.6809C29.5867 6.60404 29.5793 6.51855 29.5986 6.43715C29.6179 6.35575 29.663 6.28279 29.7272 6.22911C29.7667 6.19787 29.8116 6.17403 29.8596 6.15873ZM75.1975 40.1723L30.9027 7.67718L40.7608 29.7277L75.1975 40.1723Z" fill="#B77EFF"/>
</svg>
