<svg width="34" height="34" viewBox="0 0 34 34" fill="none" xmlns="http://www.w3.org/2000/svg">
<path opacity="0.69" d="M7.9668 33.2997L15.6746 14.2328L28.8386 12.6163L7.9668 33.2997Z" fill="#B77EFF"/>
<path d="M8.18911 33.4776C8.159 33.5148 8.12013 33.544 8.07597 33.5624C8.03181 33.5809 7.98376 33.5881 7.93614 33.5833C7.87274 33.5771 7.81299 33.5508 7.7656 33.5082C7.71821 33.4655 7.68566 33.4089 7.67272 33.3465L2.03466 7.23387C2.02232 7.17806 2.02607 7.1199 2.04544 7.06615C2.06482 7.0124 2.09904 6.96526 2.14413 6.93021C2.18777 6.89528 2.2407 6.87395 2.29635 6.86884C2.35201 6.86374 2.40795 6.87509 2.45724 6.9015L15.8108 13.9618C15.8747 14.0004 15.9233 14.0599 15.9485 14.1302C15.9738 14.2004 15.974 14.2772 15.9493 14.3477L8.23836 33.4155C8.22484 33.4384 8.20827 33.4592 8.18911 33.4776ZM2.74176 7.72173L8.04716 32.2829L15.2949 14.3558L2.74176 7.72173Z" fill="#B77EFF"/>
<path d="M29.0654 12.8097C29.0181 12.8691 28.9494 12.9078 28.874 12.9174L15.7122 14.5299C15.6533 14.5379 15.5933 14.5273 15.5407 14.4995L2.1911 7.44141C2.12733 7.40749 2.07764 7.35204 2.05086 7.28491C2.02408 7.21779 2.02195 7.14335 2.04486 7.07484C2.06775 7.00668 2.11445 6.94908 2.17637 6.91261C2.23829 6.87615 2.31129 6.86326 2.38197 6.87632L28.8965 12.3211C28.9467 12.3328 28.9932 12.357 29.0316 12.3916C29.0699 12.4262 29.0989 12.4699 29.1158 12.5187C29.1327 12.5675 29.1369 12.6198 29.1281 12.6707C29.1193 12.7216 29.0977 12.7694 29.0654 12.8097ZM15.7309 13.9211L26.9711 12.5411L4.32581 7.89113L15.7309 13.9211Z" fill="#B77EFF"/>
<path d="M29.0655 12.8097C29.0565 12.8135 29.0471 12.8163 29.0375 12.818L8.17342 33.5161C8.12466 33.5638 8.06089 33.5932 7.99292 33.5992C7.92496 33.6052 7.85701 33.5874 7.80061 33.549C7.74583 33.5072 7.70572 33.4491 7.68608 33.3831C7.66644 33.317 7.66829 33.2465 7.69137 33.1816L15.3992 14.1147C15.4186 14.0657 15.4509 14.0229 15.4926 13.9909C15.5343 13.9588 15.5839 13.9386 15.6361 13.9324L28.797 12.3168C28.8588 12.3109 28.9208 12.3242 28.9748 12.3548C29.0287 12.3855 29.0719 12.432 29.0985 12.4881C29.1215 12.5399 29.1306 12.5969 29.1248 12.6533C29.119 12.7097 29.0986 12.7636 29.0655 12.8097ZM8.7825 32.0574L27.9897 13.0177L15.8702 14.5033L8.7825 32.0574Z" fill="#B77EFF"/>
</svg>
